<svg width="1539" height="189" viewBox="0 0 1539 189" fill="none" xmlns="http://www.w3.org/2000/svg">
<rect width="1538.82" height="189" rx="20" fill="white" fill-opacity="0.05"/>
<rect x="1" y="1" width="1536.82" height="187" rx="19" stroke="white" stroke-opacity="0.2" stroke-width="2"/>
<path fill-rule="evenodd" clip-rule="evenodd" d="M100 75.6941C100 69.2238 105.25 63.8916 111.725 63.8916H147.336C150.563 63.8916 153.486 65.2156 155.606 67.3448C157.715 69.4415 159.034 72.3234 159.061 75.5084C159.071 75.7906 159.071 76.0731 159.061 76.3553V111.188C159.061 117.659 153.725 122.904 147.249 122.904C140.773 122.904 135.437 117.659 135.437 111.188C135.437 108.702 132.431 107.456 130.672 109.214L120.349 119.528C115.723 124.15 108.162 124.088 103.536 119.466C98.9102 114.844 98.848 107.289 103.474 102.667L113.753 92.3956C115.562 90.5884 114.282 87.4966 111.725 87.4966C105.25 87.4966 100 82.1644 100 75.6941ZM111.813 81.5926C108.551 81.5926 105.907 78.9505 105.907 75.6914C105.907 72.4322 108.551 69.7901 111.813 69.7901H129.531C132.793 69.7901 135.438 72.4322 135.438 75.6914V81.1774C135.438 84.6659 138.266 87.4939 141.754 87.4939H147.25C150.512 87.4939 153.156 90.1359 153.156 93.3951V111.099C153.156 114.358 150.512 117 147.25 117C143.988 117 141.344 114.358 141.344 111.099V105.613C141.344 102.124 138.516 99.2963 135.027 99.2963H129.531C126.27 99.2963 123.625 96.6543 123.625 93.3951V87.9091C123.625 84.4206 120.797 81.5926 117.309 81.5926H111.813ZM111.814 105.198C108.555 105.198 105.908 107.84 105.908 111.1C105.908 114.359 108.555 117.001 111.814 117.001C115.073 117.001 117.72 114.359 117.72 111.1C117.72 107.84 115.073 105.198 111.814 105.198Z" fill="white"/>
<path d="M192.146 107.585V78.0503H201.006V79.911C201.991 79.0643 203.113 78.4047 204.373 77.9321C205.634 77.4596 206.963 77.2233 208.361 77.2233C210.33 77.2233 212.141 77.6762 213.795 78.5819C215.449 79.468 216.788 80.6592 217.812 82.1557C218.855 80.6592 220.194 79.468 221.829 78.5819C223.483 77.6762 225.284 77.2233 227.234 77.2233C229.36 77.2233 231.29 77.7451 233.022 78.7887C234.755 79.8125 236.133 81.1909 237.157 82.9236C238.201 84.6563 238.723 86.5859 238.723 88.7125V107.585H229.862V91.1934C229.862 90.268 229.636 89.4312 229.183 88.6829C228.73 87.9347 228.129 87.3342 227.381 86.8813C226.633 86.4284 225.796 86.202 224.871 86.202C223.945 86.202 223.099 86.4284 222.331 86.8813C221.582 87.3342 220.982 87.9347 220.529 88.6829C220.076 89.4312 219.85 90.268 219.85 91.1934V107.585H210.989V91.1934C210.989 90.268 210.763 89.4312 210.31 88.6829C209.877 87.9347 209.276 87.3342 208.508 86.8813C207.76 86.4284 206.923 86.202 205.998 86.202C205.092 86.202 204.255 86.4284 203.487 86.8813C202.739 87.3342 202.139 87.9347 201.686 88.6829C201.233 89.4312 201.006 90.268 201.006 91.1934V107.585H192.146ZM265.269 78.0503H274.13V107.585H265.24L264.826 104.927C264.098 105.951 263.172 106.778 262.05 107.408C260.947 108.038 259.658 108.353 258.181 108.353C255.976 108.353 253.908 107.94 251.978 107.113C250.069 106.286 248.385 105.144 246.928 103.687C245.471 102.21 244.329 100.517 243.502 98.6068C242.695 96.6771 242.291 94.6097 242.291 92.4044C242.291 90.2975 242.675 88.3285 243.443 86.4973C244.211 84.6662 245.284 83.0614 246.662 81.6831C248.06 80.2851 249.665 79.1923 251.476 78.4047C253.308 77.6171 255.267 77.2233 257.354 77.2233C259.047 77.2233 260.583 77.5777 261.961 78.2866C263.359 78.9757 264.6 79.8421 265.683 80.8857L265.269 78.0503ZM257.945 99.8472C259.165 99.8472 260.278 99.5322 261.282 98.9021C262.286 98.272 263.084 97.4254 263.674 96.3621C264.265 95.2988 264.56 94.1174 264.56 92.8179C264.56 91.5183 264.265 90.3369 263.674 89.2736C263.084 88.2104 262.286 87.3637 261.282 86.7336C260.278 86.1035 259.165 85.7885 257.945 85.7885C256.724 85.7885 255.611 86.1035 254.607 86.7336C253.623 87.3637 252.835 88.2104 252.244 89.2736C251.673 90.3369 251.388 91.5183 251.388 92.8179C251.388 94.1174 251.683 95.2988 252.274 96.3621C252.865 97.4254 253.652 98.272 254.637 98.9021C255.641 99.5322 256.743 99.8472 257.945 99.8472ZM278.012 107.585L288.822 92.7588L278.13 78.0503H289.059L294.257 85.1978L299.514 78.0503H310.442L299.75 92.7588L310.56 107.585H299.632L294.257 100.261L288.94 107.585H278.012ZM314.728 78.0503H323.589V107.585H314.728V78.0503ZM319.218 74.9786C317.938 74.9786 316.865 74.5553 315.998 73.7086C315.132 72.8619 314.699 71.8085 314.699 70.5484C314.699 69.3079 315.132 68.2643 315.998 67.4176C316.865 66.5513 317.928 66.1181 319.188 66.1181C320.429 66.1181 321.472 66.5513 322.319 67.4176C323.185 68.2643 323.618 69.3079 323.618 70.5484C323.618 71.8085 323.195 72.8619 322.348 73.7086C321.521 74.5553 320.478 74.9786 319.218 74.9786ZM338.876 122.353H330.015V78.0503H338.876V80.8266C339.801 79.783 340.874 78.9363 342.095 78.2866C343.316 77.6171 344.724 77.2824 346.318 77.2824C348.484 77.2824 350.503 77.686 352.373 78.4933C354.244 79.3006 355.888 80.4229 357.305 81.8603C358.743 83.278 359.855 84.9221 360.643 86.7927C361.45 88.6633 361.854 90.6716 361.854 92.8179C361.854 94.9641 361.45 96.9823 360.643 98.8726C359.855 100.763 358.743 102.427 357.305 103.864C355.888 105.282 354.244 106.394 352.373 107.201C350.503 108.009 348.484 108.412 346.318 108.412C344.724 108.412 343.316 108.078 342.095 107.408C340.874 106.739 339.801 105.892 338.876 104.868V122.353ZM346.2 85.7885C344.999 85.7885 343.897 86.1134 342.892 86.7632C341.908 87.3932 341.12 88.2399 340.53 89.3032C339.939 90.3664 339.643 91.538 339.643 92.8179C339.643 94.1174 339.939 95.2988 340.53 96.3621C341.12 97.4254 341.908 98.272 342.892 98.9021C343.897 99.5322 344.999 99.8472 346.2 99.8472C347.421 99.8472 348.534 99.5322 349.538 98.9021C350.542 98.272 351.339 97.4254 351.93 96.3621C352.521 95.2988 352.816 94.1174 352.816 92.8179C352.816 91.538 352.521 90.3664 351.93 89.3032C351.339 88.2399 350.542 87.3932 349.538 86.7632C348.534 86.1134 347.421 85.7885 346.2 85.7885ZM393.398 88.7125V107.585H384.538V91.1934C384.538 90.268 384.311 89.4312 383.859 88.6829C383.406 87.915 382.805 87.3145 382.057 86.8813C381.309 86.4284 380.472 86.202 379.546 86.202C378.621 86.202 377.774 86.4284 377.006 86.8813C376.258 87.3145 375.658 87.915 375.205 88.6829C374.772 89.4312 374.555 90.268 374.555 91.1934V107.585H365.694L365.665 63.2827H374.525L374.555 79.911C375.539 79.0643 376.662 78.4047 377.922 77.9321C379.182 77.4596 380.511 77.2233 381.909 77.2233C384.036 77.2233 385.965 77.7451 387.698 78.7887C389.431 79.8125 390.809 81.1909 391.833 82.9236C392.877 84.6563 393.398 86.5859 393.398 88.7125ZM417.48 78.0503H426.931L410.746 122.353H401.354L406.67 107.585L396.038 78.0503H405.725L411.101 95.476L417.48 78.0503Z" fill="white"/>
<path d="M535.051 70.3229C544.834 80.1052 544.834 95.9838 535.051 105.766C525.198 115.548 509.32 115.548 499.537 105.766C489.755 95.9838 489.755 80.1052 499.537 70.3229C509.32 60.4697 525.269 60.4697 535.051 70.3229ZM534.697 105.483C543.062 97.0471 539.163 84.8546 529.593 75.2141C519.953 65.5735 508.256 62.2419 499.892 70.6774C491.527 79.0419 495.568 92.4395 505.208 102.08C514.778 111.65 526.332 113.847 534.697 105.483ZM560.219 93.5736C564.756 95.6293 570.143 98.0395 570.143 104.136C570.143 110.161 564.969 113.918 557.526 113.918C553.627 113.918 549.232 112.926 545.333 110.232L547.602 104.632C550.508 107.609 552.705 113.422 557.738 113.422C563.338 113.422 567.095 110.941 567.237 106.404C567.379 102.931 562.275 100.804 558.022 98.8901L555.328 97.6851C550.508 95.4876 546.113 91.0926 546.113 85.3508C546.113 79.9635 551.004 76.7736 557.384 76.7736C561.637 76.7736 565.961 78.0495 568.797 79.7508L565.607 86.8394C563.268 84.9255 561.424 77.1989 557.03 77.1989C551.784 77.1989 548.948 80.8141 548.948 84.3584C548.948 88.8243 553.911 90.7382 557.526 92.3686L560.219 93.5736ZM588.048 93.5736C592.585 95.6293 597.972 98.0395 597.972 104.136C597.972 110.161 592.797 113.918 585.354 113.918C581.455 113.918 577.06 112.926 573.162 110.232L575.43 104.632C578.336 107.609 580.534 113.422 585.567 113.422C591.167 113.422 594.924 110.941 595.066 106.404C595.207 102.931 590.104 100.804 585.85 98.8901L583.157 97.6851C578.336 95.4876 573.941 91.0926 573.941 85.3508C573.941 79.9635 578.833 76.7736 585.212 76.7736C589.466 76.7736 593.79 78.0495 596.625 79.7508L593.435 86.8394C591.096 84.9255 589.253 77.1989 584.858 77.1989C579.612 77.1989 576.777 80.8141 576.777 84.3584C576.777 88.8243 581.739 90.7382 585.354 92.3686L588.048 93.5736ZM632.747 81.8774C636.291 85.4217 638.205 90.1002 638.205 95.0623C638.205 100.024 636.291 104.703 632.747 108.176C629.274 111.721 624.595 113.634 619.633 113.634C614.671 113.634 609.993 111.721 606.448 108.176C599.218 100.946 599.218 89.1078 606.448 81.8774C613.75 74.647 625.517 74.647 632.747 81.8774ZM632.109 107.538C634.945 104.632 635.086 100.662 634.661 96.3382C634.307 91.9433 632.251 87.761 628.919 84.3584C625.091 80.5306 620.271 78.5457 615.734 78.5457C612.048 78.5457 609.78 79.8926 607.157 82.5863C601.203 88.5407 603.4 97.8268 610.418 104.774C617.436 111.791 626.155 113.493 632.109 107.538ZM662.375 110.586L662.872 111.437C660.32 112.926 657.91 113.918 654.72 113.918C646.71 113.918 644.087 107.396 644.087 104.986L644.016 78.6166L638.699 80.3888L638.203 77.6242L643.661 77.5533L649.687 66.9204H649.97V77.5533H662.517L660.816 80.885L649.97 78.6875V104.419C649.97 106.546 650.041 113.067 656.279 113.067C657.91 113.067 659.965 111.862 662.375 110.586ZM686.292 76.7736C693.665 76.7736 697.492 80.7432 697.492 89.3913V113.067H691.68V89.8876C691.68 86.9103 693.452 78.1913 684.095 78.1913C679.7 78.1913 676.368 80.3179 672.257 84.2166V113.067H666.586V78.404L671.973 77.0571H672.257V82.9407C676.652 78.9002 680.905 76.7736 686.292 76.7736ZM733.888 112.075C734.243 112.075 734.668 112.004 735.093 111.933V112.359C733.817 113.138 732.47 113.564 731.194 113.564C727.863 113.564 724.46 110.303 724.318 108.46C720.491 111.933 715.387 113.776 710.992 113.776C705.604 113.776 701.706 110.87 701.706 105.766C701.706 99.3154 708.015 95.7002 717.23 94.6369C719.64 94.3534 722.05 94.1407 724.318 93.999V89.9584C724.318 82.3027 721.341 78.5457 715.103 78.5457C711.275 78.5457 708.156 79.8926 704.754 82.7989L704.187 82.0901C707.873 78.6875 714.465 76.9862 719.356 76.9862C726.658 76.9862 730.486 80.9559 730.486 89.604V106.971C730.486 110.232 730.486 112.075 733.888 112.075ZM724.318 107.184V95.7002C714.82 95.3458 705.604 96.0547 706.101 103.285C706.455 108.602 709.645 111.012 714.04 111.012C717.797 111.012 720.987 110.374 724.318 107.184Z" fill="white"/>
<path d="M830.322 116.612C826.458 116.612 823.082 116.06 820.194 114.956C817.349 113.809 814.716 112.005 812.296 109.542L820.258 101.58C821.914 103.151 823.655 104.361 825.481 105.211C827.307 106.017 829.26 106.421 831.341 106.421C833.082 106.421 834.398 106.166 835.29 105.656C836.182 105.104 836.628 104.361 836.628 103.427C836.628 102.493 836.245 101.729 835.481 101.134C834.717 100.497 833.698 99.9451 832.424 99.478C831.192 98.9684 829.812 98.4589 828.283 97.9493C826.797 97.4398 825.311 96.824 823.825 96.1022C822.339 95.3803 820.959 94.5098 819.685 93.4907C818.453 92.4291 817.455 91.1339 816.691 89.6053C815.927 88.0341 815.544 86.1233 815.544 83.8727C815.544 80.9427 816.245 78.4161 817.646 76.293C819.048 74.1698 821.022 72.5562 823.57 71.4521C826.118 70.3056 829.112 69.7324 832.551 69.7324C835.948 69.7324 839.09 70.2844 841.978 71.3885C844.908 72.45 847.328 73.9787 849.239 75.9745L841.214 83.9364C839.812 82.5776 838.411 81.5797 837.01 80.9427C835.608 80.2633 834.08 79.9236 832.424 79.9236C831.107 79.9236 830.046 80.1359 829.239 80.5606C828.475 80.9852 828.092 81.6221 828.092 82.4714C828.092 83.3631 828.475 84.1062 829.239 84.7007C830.003 85.2528 831.001 85.7623 832.233 86.2294C833.506 86.6965 834.887 87.1848 836.373 87.6944C837.901 88.204 839.409 88.8197 840.895 89.5416C842.381 90.221 843.74 91.1127 844.972 92.2168C846.245 93.2783 847.265 94.6159 848.029 96.2296C848.793 97.8432 849.175 99.7965 849.175 102.09C849.175 106.718 847.519 110.306 844.207 112.854C840.938 115.359 836.309 116.612 830.322 116.612ZM854.486 115.848V70.4967H867.225V115.848H854.486ZM881.875 115.848V70.4967H894.614V115.848H881.875ZM861.429 98.013V87.4396H886.843V98.013H861.429ZM902.133 115.848V70.4967H914.872V115.848H902.133ZM928.526 116.612C926.53 116.612 924.874 115.933 923.557 114.574C922.241 113.215 921.583 111.559 921.583 109.606C921.583 107.61 922.241 105.932 923.557 104.574C924.874 103.215 926.53 102.535 928.526 102.535C930.521 102.535 932.156 103.215 933.43 104.574C934.747 105.932 935.405 107.61 935.405 109.606C935.405 111.559 934.747 113.215 933.43 114.574C932.156 115.933 930.521 116.612 928.526 116.612Z" fill="white"/>
<rect x="944.582" y="71.279" width="67.6761" height="43.7904" rx="1.99047" stroke="white" stroke-width="3.98095"/>
<path d="M1096.72 104.611V79.8444L1102.78 73.7844H1121.75L1127.81 79.8444V104.611L1121.75 110.671H1102.78L1096.72 104.611ZM1117.96 104.559L1120.64 101.871V82.5846L1117.96 79.8971H1106.57L1103.89 82.5846V101.871L1106.57 104.559H1117.96ZM1141.75 79.8444H1130.74V73.7844H1159.93V79.8444H1148.92V110.671H1141.75V79.8444ZM1164.15 73.7844H1171.31V89.2243H1186.91V73.7844H1194.08V110.671H1186.91V95.337H1171.31V110.671H1164.15V73.7844ZM1200.94 73.7844H1227.6V79.8444H1208.11V89.1716H1226.08V95.1262H1208.11V104.611H1227.6V110.671H1200.94V73.7844ZM1232.9 73.7844H1239.33L1255.77 98.8149H1255.87V73.7844H1262.78V110.671H1256.35L1239.91 85.6937H1239.8V110.671H1232.9V73.7844ZM1278.02 79.8444H1267.01V73.7844H1296.2V79.8444H1285.19V110.671H1278.02V79.8444ZM1300.68 73.7844H1307.84V110.671H1300.68V73.7844ZM1314.45 104.611V79.8444L1320.51 73.7844H1338.53L1344.49 79.7391V85.3775H1337.32V82.3738L1334.84 79.8971H1324.3L1321.62 82.5846V101.871L1324.3 104.559H1334.84L1337.32 102.082V99.0783H1344.49V104.717L1338.53 110.671H1320.51L1314.45 104.611ZM1359.58 73.7844H1366.11L1379.6 110.671H1372.33L1369.33 102.504H1356.36L1353.36 110.671H1346.09L1359.58 73.7844ZM1367.75 96.6017L1362.85 82.5846H1362.74L1358 96.6017H1367.75ZM1386.96 79.8444H1375.95V73.7844H1405.14V79.8444H1394.13V110.671H1386.96V79.8444ZM1409.36 73.7844H1436.02V79.8444H1416.52V89.1716H1434.49V95.1262H1416.52V104.611H1436.02V110.671H1409.36V73.7844Z" fill="white"/>
</svg>
