<svg width="2139" height="189" viewBox="0 0 2139 189" fill="none" xmlns="http://www.w3.org/2000/svg">
<rect width="2138.82" height="189" rx="20" fill="white" fill-opacity="0.05"/>
<rect x="1" y="1" width="2136.82" height="187" rx="19" stroke="white" stroke-opacity="0.2" stroke-width="2"/>
<path fill-rule="evenodd" clip-rule="evenodd" d="M400 75.6941C400 69.2238 405.25 63.8916 411.725 63.8916H447.336C450.563 63.8916 453.486 65.2156 455.606 67.3448C457.715 69.4415 459.034 72.3234 459.061 75.5084C459.071 75.7906 459.071 76.0731 459.061 76.3553V111.188C459.061 117.659 453.725 122.904 447.249 122.904C440.773 122.904 435.437 117.659 435.437 111.188C435.437 108.702 432.431 107.456 430.672 109.214L420.349 119.528C415.723 124.15 408.162 124.088 403.536 119.466C398.91 114.844 398.848 107.289 403.474 102.667L413.753 92.3956C415.562 90.5884 414.282 87.4966 411.725 87.4966C405.25 87.4966 400 82.1644 400 75.6941ZM411.813 81.5926C408.551 81.5926 405.907 78.9505 405.907 75.6914C405.907 72.4322 408.551 69.7901 411.813 69.7901H429.531C432.793 69.7901 435.438 72.4322 435.438 75.6914V81.1774C435.438 84.6659 438.266 87.4939 441.754 87.4939H447.25C450.512 87.4939 453.156 90.1359 453.156 93.3951V111.099C453.156 114.358 450.512 117 447.25 117C443.988 117 441.344 114.358 441.344 111.099V105.613C441.344 102.124 438.516 99.2963 435.027 99.2963H429.531C426.27 99.2963 423.625 96.6543 423.625 93.3951V87.9091C423.625 84.4206 420.797 81.5926 417.309 81.5926H411.813ZM411.814 105.198C408.555 105.198 405.908 107.84 405.908 111.1C405.908 114.359 408.555 117.001 411.814 117.001C415.073 117.001 417.72 114.359 417.72 111.1C417.72 107.84 415.073 105.198 411.814 105.198Z" fill="white"/>
<path d="M492.146 107.585V78.0503H501.006V79.911C501.991 79.0643 503.113 78.4047 504.373 77.9321C505.634 77.4596 506.963 77.2233 508.361 77.2233C510.33 77.2233 512.141 77.6762 513.795 78.5819C515.449 79.468 516.788 80.6592 517.812 82.1557C518.855 80.6592 520.194 79.468 521.829 78.5819C523.483 77.6762 525.284 77.2233 527.234 77.2233C529.36 77.2233 531.29 77.7451 533.022 78.7887C534.755 79.8125 536.133 81.1909 537.157 82.9236C538.201 84.6563 538.723 86.5859 538.723 88.7125V107.585H529.862V91.1934C529.862 90.268 529.636 89.4312 529.183 88.6829C528.73 87.9347 528.129 87.3342 527.381 86.8813C526.633 86.4284 525.796 86.202 524.871 86.202C523.945 86.202 523.099 86.4284 522.331 86.8813C521.582 87.3342 520.982 87.9347 520.529 88.6829C520.076 89.4312 519.85 90.268 519.85 91.1934V107.585H510.989V91.1934C510.989 90.268 510.763 89.4312 510.31 88.6829C509.877 87.9347 509.276 87.3342 508.508 86.8813C507.76 86.4284 506.923 86.202 505.998 86.202C505.092 86.202 504.255 86.4284 503.487 86.8813C502.739 87.3342 502.139 87.9347 501.686 88.6829C501.233 89.4312 501.006 90.268 501.006 91.1934V107.585H492.146ZM565.269 78.0503H574.13V107.585H565.24L564.826 104.927C564.098 105.951 563.172 106.778 562.05 107.408C560.947 108.038 559.658 108.353 558.181 108.353C555.976 108.353 553.908 107.94 551.978 107.113C550.069 106.286 548.385 105.144 546.928 103.687C545.471 102.21 544.329 100.517 543.502 98.6068C542.695 96.6771 542.291 94.6097 542.291 92.4044C542.291 90.2975 542.675 88.3285 543.443 86.4973C544.211 84.6662 545.284 83.0614 546.662 81.6831C548.06 80.2851 549.665 79.1923 551.476 78.4047C553.308 77.6171 555.267 77.2233 557.354 77.2233C559.047 77.2233 560.583 77.5777 561.961 78.2866C563.359 78.9757 564.6 79.8421 565.683 80.8857L565.269 78.0503ZM557.945 99.8472C559.165 99.8472 560.278 99.5322 561.282 98.9021C562.286 98.272 563.084 97.4254 563.674 96.3621C564.265 95.2988 564.56 94.1174 564.56 92.8179C564.56 91.5183 564.265 90.3369 563.674 89.2736C563.084 88.2104 562.286 87.3637 561.282 86.7336C560.278 86.1035 559.165 85.7885 557.945 85.7885C556.724 85.7885 555.611 86.1035 554.607 86.7336C553.623 87.3637 552.835 88.2104 552.244 89.2736C551.673 90.3369 551.388 91.5183 551.388 92.8179C551.388 94.1174 551.683 95.2988 552.274 96.3621C552.865 97.4254 553.652 98.272 554.637 98.9021C555.641 99.5322 556.743 99.8472 557.945 99.8472ZM578.012 107.585L588.822 92.7588L578.13 78.0503H589.059L594.257 85.1978L599.514 78.0503H610.442L599.75 92.7588L610.56 107.585H599.632L594.257 100.261L588.94 107.585H578.012ZM614.728 78.0503H623.589V107.585H614.728V78.0503ZM619.218 74.9786C617.938 74.9786 616.865 74.5553 615.998 73.7086C615.132 72.8619 614.699 71.8085 614.699 70.5484C614.699 69.3079 615.132 68.2643 615.998 67.4176C616.865 66.5513 617.928 66.1181 619.188 66.1181C620.429 66.1181 621.472 66.5513 622.319 67.4176C623.185 68.2643 623.618 69.3079 623.618 70.5484C623.618 71.8085 623.195 72.8619 622.348 73.7086C621.521 74.5553 620.478 74.9786 619.218 74.9786ZM638.876 122.353H630.015V78.0503H638.876V80.8266C639.801 79.783 640.874 78.9363 642.095 78.2866C643.316 77.6171 644.724 77.2824 646.318 77.2824C648.484 77.2824 650.503 77.686 652.373 78.4933C654.244 79.3006 655.888 80.4229 657.305 81.8603C658.743 83.278 659.855 84.9221 660.643 86.7927C661.45 88.6633 661.854 90.6716 661.854 92.8179C661.854 94.9641 661.45 96.9823 660.643 98.8726C659.855 100.763 658.743 102.427 657.305 103.864C655.888 105.282 654.244 106.394 652.373 107.201C650.503 108.009 648.484 108.412 646.318 108.412C644.724 108.412 643.316 108.078 642.095 107.408C640.874 106.739 639.801 105.892 638.876 104.868V122.353ZM646.2 85.7885C644.999 85.7885 643.897 86.1134 642.892 86.7632C641.908 87.3932 641.12 88.2399 640.53 89.3032C639.939 90.3664 639.643 91.538 639.643 92.8179C639.643 94.1174 639.939 95.2988 640.53 96.3621C641.12 97.4254 641.908 98.272 642.892 98.9021C643.897 99.5322 644.999 99.8472 646.2 99.8472C647.421 99.8472 648.534 99.5322 649.538 98.9021C650.542 98.272 651.339 97.4254 651.93 96.3621C652.521 95.2988 652.816 94.1174 652.816 92.8179C652.816 91.538 652.521 90.3664 651.93 89.3032C651.339 88.2399 650.542 87.3932 649.538 86.7632C648.534 86.1134 647.421 85.7885 646.2 85.7885ZM693.398 88.7125V107.585H684.538V91.1934C684.538 90.268 684.311 89.4312 683.859 88.6829C683.406 87.915 682.805 87.3145 682.057 86.8813C681.309 86.4284 680.472 86.202 679.546 86.202C678.621 86.202 677.774 86.4284 677.006 86.8813C676.258 87.3145 675.658 87.915 675.205 88.6829C674.772 89.4312 674.555 90.268 674.555 91.1934V107.585H665.694L665.665 63.2827H674.525L674.555 79.911C675.539 79.0643 676.662 78.4047 677.922 77.9321C679.182 77.4596 680.511 77.2233 681.909 77.2233C684.036 77.2233 685.965 77.7451 687.698 78.7887C689.431 79.8125 690.809 81.1909 691.833 82.9236C692.877 84.6563 693.398 86.5859 693.398 88.7125ZM717.48 78.0503H726.931L710.746 122.353H701.354L706.67 107.585L696.038 78.0503H705.725L711.101 95.476L717.48 78.0503Z" fill="white"/>
<path d="M835.051 70.3229C844.834 80.1052 844.834 95.9838 835.051 105.766C825.198 115.548 809.32 115.548 799.537 105.766C789.755 95.9838 789.755 80.1052 799.537 70.3229C809.32 60.4697 825.269 60.4697 835.051 70.3229ZM834.697 105.483C843.062 97.0471 839.163 84.8546 829.593 75.2141C819.953 65.5735 808.256 62.2419 799.892 70.6774C791.527 79.0419 795.568 92.4395 805.208 102.08C814.778 111.65 826.332 113.847 834.697 105.483ZM860.219 93.5736C864.756 95.6293 870.143 98.0395 870.143 104.136C870.143 110.161 864.969 113.918 857.526 113.918C853.627 113.918 849.232 112.926 845.333 110.232L847.602 104.632C850.508 107.609 852.705 113.422 857.738 113.422C863.338 113.422 867.095 110.941 867.237 106.404C867.379 102.931 862.275 100.804 858.022 98.8901L855.328 97.6851C850.508 95.4876 846.113 91.0926 846.113 85.3508C846.113 79.9635 851.004 76.7736 857.384 76.7736C861.637 76.7736 865.961 78.0495 868.797 79.7508L865.607 86.8394C863.268 84.9255 861.424 77.1989 857.03 77.1989C851.784 77.1989 848.948 80.8141 848.948 84.3584C848.948 88.8243 853.911 90.7382 857.526 92.3686L860.219 93.5736ZM888.048 93.5736C892.585 95.6293 897.972 98.0395 897.972 104.136C897.972 110.161 892.797 113.918 885.354 113.918C881.455 113.918 877.06 112.926 873.162 110.232L875.43 104.632C878.336 107.609 880.534 113.422 885.567 113.422C891.167 113.422 894.924 110.941 895.066 106.404C895.207 102.931 890.104 100.804 885.85 98.8901L883.157 97.6851C878.336 95.4876 873.941 91.0926 873.941 85.3508C873.941 79.9635 878.833 76.7736 885.212 76.7736C889.466 76.7736 893.79 78.0495 896.625 79.7508L893.435 86.8394C891.096 84.9255 889.253 77.1989 884.858 77.1989C879.612 77.1989 876.777 80.8141 876.777 84.3584C876.777 88.8243 881.739 90.7382 885.354 92.3686L888.048 93.5736ZM932.747 81.8774C936.291 85.4217 938.205 90.1002 938.205 95.0623C938.205 100.024 936.291 104.703 932.747 108.176C929.274 111.721 924.595 113.634 919.633 113.634C914.671 113.634 909.993 111.721 906.448 108.176C899.218 100.946 899.218 89.1078 906.448 81.8774C913.75 74.647 925.517 74.647 932.747 81.8774ZM932.109 107.538C934.945 104.632 935.086 100.662 934.661 96.3382C934.307 91.9433 932.251 87.761 928.919 84.3584C925.091 80.5306 920.271 78.5457 915.734 78.5457C912.048 78.5457 909.78 79.8926 907.157 82.5863C901.203 88.5407 903.4 97.8268 910.418 104.774C917.436 111.791 926.155 113.493 932.109 107.538ZM962.375 110.586L962.872 111.437C960.32 112.926 957.91 113.918 954.72 113.918C946.71 113.918 944.087 107.396 944.087 104.986L944.016 78.6166L938.699 80.3888L938.203 77.6242L943.661 77.5533L949.687 66.9204H949.97V77.5533H962.517L960.816 80.885L949.97 78.6875V104.419C949.97 106.546 950.041 113.067 956.279 113.067C957.91 113.067 959.965 111.862 962.375 110.586ZM986.292 76.7736C993.665 76.7736 997.492 80.7432 997.492 89.3913V113.067H991.68V89.8876C991.68 86.9103 993.452 78.1913 984.095 78.1913C979.7 78.1913 976.368 80.3179 972.257 84.2166V113.067H966.586V78.404L971.973 77.0571H972.257V82.9407C976.652 78.9002 980.905 76.7736 986.292 76.7736ZM1033.89 112.075C1034.24 112.075 1034.67 112.004 1035.09 111.933V112.359C1033.82 113.138 1032.47 113.564 1031.19 113.564C1027.86 113.564 1024.46 110.303 1024.32 108.46C1020.49 111.933 1015.39 113.776 1010.99 113.776C1005.6 113.776 1001.71 110.87 1001.71 105.766C1001.71 99.3154 1008.01 95.7002 1017.23 94.6369C1019.64 94.3534 1022.05 94.1407 1024.32 93.999V89.9584C1024.32 82.3027 1021.34 78.5457 1015.1 78.5457C1011.28 78.5457 1008.16 79.8926 1004.75 82.7989L1004.19 82.0901C1007.87 78.6875 1014.47 76.9862 1019.36 76.9862C1026.66 76.9862 1030.49 80.9559 1030.49 89.604V106.971C1030.49 110.232 1030.49 112.075 1033.89 112.075ZM1024.32 107.184V95.7002C1014.82 95.3458 1005.6 96.0547 1006.1 103.285C1006.46 108.602 1009.64 111.012 1014.04 111.012C1017.8 111.012 1020.99 110.374 1024.32 107.184Z" fill="white"/>
<path d="M1130.32 116.612C1126.46 116.612 1123.08 116.06 1120.19 114.956C1117.35 113.809 1114.72 112.005 1112.3 109.542L1120.26 101.58C1121.91 103.151 1123.65 104.361 1125.48 105.211C1127.31 106.017 1129.26 106.421 1131.34 106.421C1133.08 106.421 1134.4 106.166 1135.29 105.656C1136.18 105.104 1136.63 104.361 1136.63 103.427C1136.63 102.493 1136.25 101.729 1135.48 101.134C1134.72 100.497 1133.7 99.9451 1132.42 99.478C1131.19 98.9684 1129.81 98.4589 1128.28 97.9493C1126.8 97.4398 1125.31 96.824 1123.82 96.1022C1122.34 95.3803 1120.96 94.5098 1119.68 93.4907C1118.45 92.4291 1117.46 91.1339 1116.69 89.6053C1115.93 88.0341 1115.54 86.1233 1115.54 83.8727C1115.54 80.9427 1116.25 78.4161 1117.65 76.293C1119.05 74.1698 1121.02 72.5562 1123.57 71.4521C1126.12 70.3056 1129.11 69.7324 1132.55 69.7324C1135.95 69.7324 1139.09 70.2844 1141.98 71.3885C1144.91 72.45 1147.33 73.9787 1149.24 75.9745L1141.21 83.9364C1139.81 82.5776 1138.41 81.5797 1137.01 80.9427C1135.61 80.2633 1134.08 79.9236 1132.42 79.9236C1131.11 79.9236 1130.05 80.1359 1129.24 80.5606C1128.47 80.9852 1128.09 81.6221 1128.09 82.4714C1128.09 83.3631 1128.47 84.1062 1129.24 84.7007C1130 85.2528 1131 85.7623 1132.23 86.2294C1133.51 86.6965 1134.89 87.1848 1136.37 87.6944C1137.9 88.204 1139.41 88.8197 1140.9 89.5416C1142.38 90.221 1143.74 91.1127 1144.97 92.2168C1146.25 93.2783 1147.26 94.6159 1148.03 96.2296C1148.79 97.8432 1149.18 99.7965 1149.18 102.09C1149.18 106.718 1147.52 110.306 1144.21 112.854C1140.94 115.359 1136.31 116.612 1130.32 116.612ZM1154.49 115.848V70.4967H1167.23V115.848H1154.49ZM1181.87 115.848V70.4967H1194.61V115.848H1181.87ZM1161.43 98.013V87.4396H1186.84V98.013H1161.43ZM1202.13 115.848V70.4967H1214.87V115.848H1202.13ZM1228.53 116.612C1226.53 116.612 1224.87 115.933 1223.56 114.574C1222.24 113.215 1221.58 111.559 1221.58 109.606C1221.58 107.61 1222.24 105.932 1223.56 104.574C1224.87 103.215 1226.53 102.535 1228.53 102.535C1230.52 102.535 1232.16 103.215 1233.43 104.574C1234.75 105.932 1235.4 107.61 1235.4 109.606C1235.4 111.559 1234.75 113.215 1233.43 114.574C1232.16 115.933 1230.52 116.612 1228.53 116.612Z" fill="white"/>
<rect x="1244.58" y="71.279" width="67.6761" height="43.7904" rx="1.99047" stroke="white" stroke-width="3.98095"/>
<path d="M1396.72 104.611V79.8444L1402.78 73.7844H1421.75L1427.81 79.8444V104.611L1421.75 110.671H1402.78L1396.72 104.611ZM1417.96 104.559L1420.64 101.871V82.5846L1417.96 79.8971H1406.57L1403.89 82.5846V101.871L1406.57 104.559H1417.96ZM1441.75 79.8444H1430.74V73.7844H1459.93V79.8444H1448.92V110.671H1441.75V79.8444ZM1464.15 73.7844H1471.31V89.2243H1486.91V73.7844H1494.08V110.671H1486.91V95.337H1471.31V110.671H1464.15V73.7844ZM1500.94 73.7844H1527.6V79.8444H1508.11V89.1716H1526.08V95.1262H1508.11V104.611H1527.6V110.671H1500.94V73.7844ZM1532.9 73.7844H1539.33L1555.77 98.8149H1555.87V73.7844H1562.78V110.671H1556.35L1539.91 85.6937H1539.8V110.671H1532.9V73.7844ZM1578.02 79.8444H1567.01V73.7844H1596.2V79.8444H1585.19V110.671H1578.02V79.8444ZM1600.68 73.7844H1607.84V110.671H1600.68V73.7844ZM1614.45 104.611V79.8444L1620.51 73.7844H1638.53L1644.49 79.7391V85.3775H1637.32V82.3738L1634.84 79.8971H1624.3L1621.62 82.5846V101.871L1624.3 104.559H1634.84L1637.32 102.082V99.0783H1644.49V104.717L1638.53 110.671H1620.51L1614.45 104.611ZM1659.58 73.7844H1666.11L1679.6 110.671H1672.33L1669.33 102.504H1656.36L1653.36 110.671H1646.09L1659.58 73.7844ZM1667.75 96.6017L1662.85 82.5846H1662.74L1658 96.6017H1667.75ZM1686.96 79.8444H1675.95V73.7844H1705.14V79.8444H1694.13V110.671H1686.96V79.8444ZM1709.36 73.7844H1736.02V79.8444H1716.52V89.1716H1734.49V95.1262H1716.52V104.611H1736.02V110.671H1709.36V73.7844Z" fill="white"/>
</svg>
